Simulation
nRows=16
nColumns=15
endheader
time  TH_x TH_y TH_z SC_y  SC_z  SC_x  AC_y  AC_z  AC_x  GH_y  GH_z  GH_yy  EL_x  PS_y
0.0  0.000000  0.000000  0.000000  -30.71762539393615  -1.7371106142493504  11.718984422145605  57.06588951575477  -6.315234289470639  -12.911292488625477  17.822612262281492  -0.05218999655137821  6.19991402351889  25.521708742907883  0.000000
0.015  0.000000  0.000000  0.000000  -30.809228477021733  -1.82849254724436  11.761775467819932  57.12571430281236  -6.287914703136595  -12.917710010107145  17.741240630482835  0.2093350211511979  6.106338429585612  25.548873580764614  0.000000
0.03  0.000000  0.000000  0.000000  -30.784016528391156  -1.8070829900441725  11.817637644806213  57.18318890385694  -6.318580802872804  -12.908674246431607  17.759041847495023  0.5070589848614827  6.04678398409774  25.568006991967714  0.000000
0.045  0.000000  0.000000  0.000000  -30.80934592298131  -1.7676204910335047  11.893613778890467  57.201491418282735  -6.3585400088315325  -12.907171486568421  17.835000474300667  0.8538364347864003  5.941579695886104  25.553608448863947  0.000000
0.06  0.000000  0.000000  0.000000  -30.845126578028538  -1.7343036148423938  11.978687728865703  57.20878970937149  -6.40733030825724  -12.920982840334464  17.91288983313279  1.247382877748486  5.727039246189359  25.5217831425037  0.000000
0.075  0.000000  0.000000  0.000000  -30.900459251669812  -1.7048735821519456  12.077286164974923  57.22365804110287  -6.462811262713658  -12.943838108060367  18.015664470998857  1.6914653586428103  5.432206266650568  25.472693279536088  0.000000
0.09  0.000000  0.000000  0.000000  -30.95530340790951  -1.6741524048014422  12.192007885588412  57.23255200970729  -6.522371520995857  -12.973426106491475  18.131589352940626  2.1718307720399452  5.056371018764729  25.41667755554695  0.000000
0.105  0.000000  0.000000  0.000000  -31.010888022012747  -1.6400772108814536  12.319691715057951  57.24849288159676  -6.587524365840618  -13.006102602319988  18.260647961336968  2.6941000828170334  4.612237491938549  25.354384456653776  0.000000
0.12  0.000000  0.000000  0.000000  -31.066266493655093  -1.6016534348752192  12.461153030604573  57.26541440172143  -6.653777278372814  -13.042291038856204  18.400236410182753  3.252359189236197  4.1104242175877035  25.290452927710984  0.000000
0.135  0.000000  0.000000  0.000000  -31.119412780358605  -1.558012140972075  12.61404978020527  57.28519128223567  -6.720475259741792  -13.080126397207016  18.546052695981647  3.8454911312061615  3.558658627569739  25.222976019396835  0.000000
0.15  0.000000  0.000000  0.000000  -31.17117510841477  -1.509937553226051  12.776962362098123  57.3083007714709  -6.784531527926906  -13.120443463903852  18.695608041760767  4.47097984875575  2.9661477949448214  25.153986403783673  0.000000
0.16499999999999998  0.000000  0.000000  0.000000  -31.22065172369769  -1.45742859573214  12.948778081575004  57.33335480174309  -6.844249832323622  -13.162557794348473  18.84619544705207  5.125364650314397  2.34065612388749  25.082301817713425  0.000000
0.18  0.000000  0.000000  0.000000  -31.267847973297375  -1.4014929713928743  13.127660351108837  57.36190824159804  -6.897839117448428  -13.206645340383233  18.994966912691048  5.806303518437471  1.688946084814178  25.0085270959297  0.000000
0.195  0.000000  0.000000  0.000000  -31.3129498271976  -1.3426125144698098  13.312514457298144  57.39301562112905  -6.9433737752219855  -13.252460698667356  19.14058820223913  6.510400404472554  1.0182534353803214  24.932348353002258  0.000000
0.21  0.000000  0.000000  0.000000  -31.35569528734618  -1.2812946664932612  13.501367040239833  57.427453964822874  -6.979192327040324  -13.299566873452157  19.28085887689812  7.23497349033391  0.33397551484813237  24.85374736918283  0.000000
0.22499999999999998  0.000000  0.000000  0.000000  -31.396435834748807  -1.2177274947358234  13.692738820201546  57.46442219791942  -7.00308458844135  -13.34767247540026  19.414956601660517  7.976990625622409  -0.3578780077229029  24.77280021582388  0.000000
